<svg fill="none" height="25" viewBox="0 0 24 25" width="24" xmlns="http://www.w3.org/2000/svg" xmlns:xlink="http://www.w3.org/1999/xlink"><clipPath id="a"><path d="m0 .5h24v24h-24z"/></clipPath><g clip-path="url(#a)"><path d="m21.3333.5h-18.66663c-1.46667 0-2.66667 1.2-2.66667 2.66667v18.66663c0 1.4667 1.2 2.6667 2.66667 2.6667h18.66663c1.4667 0 2.6667-1.2 2.6667-2.6667v-18.66663c0-1.46667-1.2-2.66667-2.6667-2.66667zm-11.0533 17.72c-.1234.1236-.2699.2217-.43117.2886-.16129.0669-.33421.1013-.50883.1013s-.34753-.0344-.50883-.1013-.30782-.165-.43117-.2886l-4.78667-4.7867c-.12344-.1234-.22136-.27-.28817-.4312-.0668-.1613-.10119-.3342-.10119-.5088 0-.1745.03439-.3474.10119-.5087.06681-.1613.16473-.3078.28817-.4313.12345-.1234.26999-.2213.43128-.2881.16128-.0668.33415-.1012.50872-.1012.17458 0 .34744.0344.50873.1012.16128.0668.30783.1647.43127.2881l3.84 3.84 9.17337-9.1733c.2493-.2493.5874-.38936.94-.38936.3525 0 .6907.14006.94.38936s.3893.58743.3893.94-.14.6907-.3893.94z" fill="#333"/></g></svg>