<svg fill="none" height="17" viewBox="0 0 16 17" width="16" xmlns="http://www.w3.org/2000/svg"><path d="m5.15312 1.26945c-.24062-.581245-.875-.89062-1.48124-.724995l-2.750005.749995c-.54375.15-.921875.64375-.921875 1.20625 0 7.7313 6.26875 14 14 14 .5625 0 1.0563-.3781 1.2063-.9219l.75-2.75c.1656-.6062-.1438-1.2406-.7251-1.4812l-3-1.25c-.5093-.21252-1.0999-.0656-1.4468.3625l-1.26252 1.5406c-2.2-1.0406-3.98125-2.82187-5.02188-5.02187l1.54063-1.25938c.42812-.35.57499-.9375.36249-1.44687l-1.25-3z" fill="#ff8b71"/></svg>